<svg width="227" height="45" viewBox="0 0 227 45" fill="none" xmlns="http://www.w3.org/2000/svg" class="SVG_svg-raw-wrap__ODfz9 HomepageLogos_homepage-logos__logo__j4N53" >
<path fill-rule="evenodd" clip-rule="evenodd" d="M-7.92725 48.8715C-4.18604 48.8642 -0.444766 48.8569 3.29582 48.9987H5.72332C7.70546 48.997 9.68755 48.9954 11.6696 48.9939L11.7405 48.9938H11.7406H11.7406H11.7407H11.7407H11.7408H11.7409H11.7409H11.741H11.741C14.3626 48.9917 16.9842 48.9896 19.6059 48.9872C19.6483 48.9871 19.6906 48.9873 19.733 48.9876C19.8986 48.9886 20.0644 48.9896 20.228 48.972C20.7194 48.9187 21.0846 48.6749 21.2802 48.213C21.3683 48.0043 21.4411 47.7877 21.5121 47.5722C22.0029 46.0805 22.4933 44.5885 22.9806 43.0956C25.5388 35.2572 28.0968 27.4186 30.6538 19.5799C30.8068 19.1106 30.9577 18.6406 31.1086 18.1707C31.3051 17.5585 31.5017 16.9463 31.7028 16.3357C31.9183 15.6824 31.7511 15.1591 31.204 14.7494C31.0218 14.6129 30.8391 14.4767 30.6538 14.344C23.5854 9.26518 16.5166 4.18683 9.44771 -0.891638L6.12092 -3.28168C5.90167 -3.43914 5.68204 -3.59614 5.46239 -3.75315L5.46193 -3.75348L5.4618 -3.75357L5.46174 -3.75362C5.02432 -4.06631 4.58682 -4.37905 4.15212 -4.6955C3.61842 -5.08385 3.08722 -5.11115 2.54542 -4.71721C2.43595 -4.63751 2.32498 -4.55984 2.214 -4.48216C2.10428 -4.40537 1.99455 -4.32856 1.88622 -4.24976C-6.83918 2.10468 -15.5642 8.45976 -24.2889 14.8151C-24.3536 14.8622 -24.4167 14.9116 -24.4798 14.961L-24.4798 14.9611L-24.4799 14.9612C-24.5309 15.0012 -24.582 15.0412 -24.6339 15.08C-24.9749 15.3347 -25.0652 15.6703 -24.9565 16.0695C-24.9185 16.2091 -24.8802 16.3487 -24.8354 16.4861C-24.0334 18.9466 -23.2311 21.4071 -22.4287 23.8676L-20.8192 28.8038C-20.2903 30.4263 -19.7611 32.0489 -19.2319 33.6714C-17.7365 38.2567 -16.2411 42.8419 -14.7496 47.4286C-14.3178 48.7571 -14.1864 48.8613 -12.764 48.869C-11.1518 48.8778 -9.53953 48.8746 -7.92725 48.8715ZM7.37487 46.3859L3.36992 46.3857C-1.65168 46.3854 -6.67318 46.3854 -11.6951 46.386C-11.7335 46.386 -11.7721 46.385 -11.8106 46.384C-11.8969 46.3817 -11.9832 46.3795 -12.0684 46.3885C-12.3486 46.4183 -12.4629 46.2849 -12.5429 46.0244C-12.768 45.2929 -13.0066 44.5653 -13.2452 43.8378L-13.2452 43.8377C-13.335 43.564 -13.4247 43.2903 -13.5138 43.0165L-14.5426 39.8505L-14.5521 39.8212C-15.9173 35.6202 -17.2824 31.4194 -18.6471 27.2182C-19.7768 23.7401 -20.9061 20.262 -22.0345 16.7836C-22.1837 16.3233 -22.1828 16.3186 -21.7795 16.0289C-18.775 13.8694 -15.7702 11.7106 -12.7654 9.55176L-12.7359 9.53057L-12.6732 9.48547L-12.6677 9.48156C-10.3885 7.84404 -8.1093 6.20654 -5.83028 4.56878C-4.69842 3.75556 -3.56702 2.94174 -2.43562 2.12792C-0.6407 0.836835 1.15419 -0.454234 2.95082 -1.74285C3.03876 -1.80589 3.11144 -1.86055 3.17295 -1.9068L3.17319 -1.90699L3.17329 -1.90706L3.17353 -1.90724L3.17363 -1.90732C3.34194 -2.03391 3.42637 -2.09741 3.51082 -2.09745C3.59585 -2.09749 3.6809 -2.03322 3.85156 -1.90426L3.85175 -1.90412L3.85215 -1.90381L3.85258 -1.9035L3.8528 -1.90333C3.90777 -1.8618 3.97159 -1.81358 4.04712 -1.75867C7.56925 0.801042 11.0897 3.36303 14.6101 5.92494L14.6617 5.96251L14.6838 5.97853L14.6908 5.98365L14.6978 5.98876L14.7048 5.99388C16.2115 7.09031 17.7181 8.18674 19.2248 9.28296C21.4121 10.8746 23.5999 12.4657 25.7877 14.0568L28.2715 15.8633C28.3172 15.8965 28.362 15.9313 28.4068 15.9661L28.4068 15.9661L28.4069 15.9661C28.51 16.0462 28.6131 16.1263 28.7264 16.1877C29.0265 16.3506 29.0315 16.5686 28.9334 16.8608C28.7314 17.4617 28.5373 18.0655 28.3431 18.6694L28.3429 18.6702C28.2019 19.1086 28.0609 19.5471 27.9168 19.9847C25.4498 27.4812 22.9812 34.9771 20.5114 42.4727C20.1493 43.5714 19.78 44.6676 19.4091 45.7635C19.3936 45.8093 19.3794 45.8518 19.3662 45.8912L19.3662 45.8913L19.3661 45.8913L19.3661 45.8914C19.272 46.1727 19.2301 46.2979 19.1437 46.3518C19.0744 46.3951 18.9765 46.3925 18.8001 46.3879C18.7324 46.3861 18.6531 46.3841 18.5594 46.3842C14.8312 46.3867 11.1033 46.3863 7.37521 46.3859H7.37518H7.37514H7.37511H7.37507H7.37504H7.375H7.37497H7.37494H7.3749H7.37487ZM104.435 18.2497V17.5844C104.65 17.6973 104.759 17.8362 104.859 17.9641C104.883 17.9945 104.906 18.0242 104.931 18.0528C105.709 18.9751 106.485 19.8997 107.261 20.8245L107.768 21.4285L109.443 23.4239C112.119 26.6114 114.794 29.7988 117.463 32.9931C117.696 33.2726 117.926 33.41 118.298 33.3979C118.813 33.3815 119.329 33.3844 119.844 33.3873C120.138 33.3889 120.432 33.3906 120.726 33.3886C121.197 33.3858 121.197 33.3796 121.205 32.9171V32.9168C121.206 32.848 121.205 32.7791 121.205 32.7102C121.205 32.6757 121.205 32.6412 121.205 32.6066V11.0255C121.205 10.987 121.203 10.9482 121.202 10.9095V10.9092C121.199 10.8234 121.196 10.7375 121.208 10.6536C121.252 10.3298 121.123 10.2181 120.796 10.2259C120.267 10.238 119.738 10.2358 119.209 10.2336H119.209H119.209H119.209H119.209H119.209H119.209H119.208H119.208H119.208C118.949 10.2326 118.689 10.2315 118.43 10.2321L118.304 10.2322C117.991 10.2319 117.848 10.2318 117.786 10.3022C117.735 10.3605 117.738 10.4672 117.744 10.6621C117.746 10.7399 117.749 10.8318 117.749 10.9402C117.747 13.4566 117.746 15.9729 117.746 18.4893C117.746 21.3682 117.745 24.2472 117.743 27.1263C117.743 27.172 117.746 27.2189 117.75 27.2666C117.762 27.4335 117.775 27.6112 117.644 27.7882C117.385 27.4828 117.13 27.1823 116.878 26.8848L116.86 26.8629L116.855 26.8579C116.477 26.4113 116.104 25.9712 115.732 25.5307C114.845 24.4823 113.958 23.4339 113.072 22.3856L113.057 22.3688L113.043 22.3519L113.029 22.335L113 22.3013L112.986 22.2842C109.703 18.4034 106.421 14.5225 103.147 10.6344C102.893 10.332 102.642 10.2141 102.251 10.2231C101.53 10.2393 100.809 10.2373 100.087 10.2354C99.6881 10.2343 99.2888 10.2332 98.8896 10.2352C98.8615 10.2354 98.8324 10.2326 98.8027 10.2298C98.6917 10.2193 98.5732 10.208 98.4746 10.3441C98.6756 10.5853 98.875 10.8286 99.0746 11.0721L99.075 11.0725C99.5547 11.6577 100.036 12.2445 100.543 12.8082C100.942 13.2508 101.102 13.7046 101.1 14.3045C101.083 19.0845 101.085 23.8642 101.086 28.6441C101.086 29.9624 101.087 31.2806 101.087 32.5989L101.087 32.6465L101.087 32.6761L101.088 32.7551L101.088 32.758C101.09 32.8706 101.092 32.9831 101.086 33.0951C101.075 33.3058 101.167 33.392 101.376 33.3908C102.31 33.3867 103.244 33.3873 104.177 33.3904C104.359 33.3914 104.442 33.316 104.436 33.1336C104.431 33.0197 104.433 32.9058 104.434 32.7919C104.434 32.7403 104.435 32.6886 104.435 32.637V18.2497ZM194.079 27.7625V27.0168L194.079 21.6436C194.078 18.0613 194.078 14.479 194.079 10.8966C194.079 10.8147 194.078 10.7425 194.076 10.6789C194.073 10.4674 194.07 10.3505 194.128 10.286C194.198 10.2061 194.359 10.2064 194.72 10.2069L194.793 10.207L195.136 10.2074C195.706 10.208 196.277 10.2086 196.848 10.2067C197.553 10.2043 197.553 10.2227 197.54 10.6662V10.6665C197.538 10.7409 197.535 10.8272 197.536 10.9273C197.541 11.7871 197.54 12.6468 197.539 13.5066C197.538 13.8661 197.538 14.2257 197.538 14.5853L197.538 20.6205C197.538 24.6436 197.538 28.6665 197.538 32.6895L197.538 32.7265L197.538 32.8026L197.539 32.8887C197.542 33.1228 197.543 33.2451 197.483 33.3088C197.417 33.3786 197.277 33.3782 196.983 33.3774H196.982L196.873 33.3772L196.824 33.3772C196.589 33.3778 196.355 33.3762 196.12 33.3746H196.12C195.628 33.3712 195.136 33.3678 194.646 33.3846C194.28 33.397 194.038 33.2782 193.803 32.9957C192.163 31.0271 190.516 29.0654 188.868 27.1038L188.847 27.0794L188.827 27.0554C188.305 26.4341 187.783 25.8127 187.262 25.1911C186.631 24.4401 186.001 23.689 185.371 22.9379L185.327 22.8862L185.306 22.861L185.298 22.851L185.283 22.8333L185.275 22.8234L185.273 22.821L185.271 22.8187C183.939 21.2313 182.607 19.6439 181.274 18.0578C181.25 18.0302 181.228 18.0015 181.205 17.9723C181.103 17.8428 180.992 17.7024 180.767 17.5928V18.3143L180.767 21.9239C180.767 25.5154 180.767 29.107 180.766 32.6985C180.766 32.7308 180.766 32.7615 180.766 32.7908L180.767 32.8891C180.77 33.1333 180.771 33.2559 180.71 33.3171C180.649 33.3786 180.526 33.3781 180.278 33.3771L180.201 33.3768L180.166 33.3768L180.112 33.3769C179.828 33.378 179.544 33.3771 179.259 33.3763C178.776 33.3749 178.293 33.3734 177.81 33.3812C177.517 33.3862 177.385 33.2863 177.415 32.9863C177.424 32.8885 177.422 32.7892 177.419 32.6901C177.418 32.6443 177.417 32.5986 177.417 32.553C177.417 31.2541 177.417 29.9552 177.416 28.6563V28.6326C177.416 23.7807 177.415 18.9288 177.424 14.0766C177.426 13.6591 177.325 13.3315 177.047 13.0142C176.507 12.3957 175.985 11.7612 175.463 11.127L175.463 11.1269L175.462 11.1267L175.462 11.1266L175.462 11.1265L175.462 11.1264L175.462 11.1263L175.462 11.1261L175.462 11.126L175.462 11.1258C175.326 10.9615 175.191 10.7972 175.056 10.6332C175.039 10.6125 175.02 10.5928 175 10.5726C174.92 10.4898 174.833 10.3996 174.845 10.2076H175.499C175.785 10.2077 176.07 10.2089 176.356 10.21C177.108 10.2129 177.859 10.2158 178.61 10.2005C178.978 10.1928 179.219 10.3175 179.454 10.5957C184.151 16.1647 188.856 21.727 193.562 27.2883C193.587 27.3182 193.611 27.3492 193.636 27.3809C193.738 27.5119 193.848 27.6534 194.079 27.7625ZM80.3729 19.9075C79.6119 20.0229 78.8999 20.2794 78.1199 20.6414V17.3699C78.1199 17.071 78.1196 16.7722 78.1194 16.4734C78.1188 15.677 78.1182 14.8808 78.1219 14.0844C78.1239 13.6567 78.1329 13.6561 78.5729 13.6471C78.658 13.6454 78.7426 13.6459 78.8275 13.6463C78.8672 13.6466 78.907 13.6468 78.9469 13.6468H90.3349C90.3811 13.6468 90.4274 13.6459 90.4737 13.645C90.5727 13.6431 90.6718 13.6412 90.7699 13.648C90.9969 13.6641 91.1079 13.5962 91.1049 13.3409C91.0939 12.411 91.0949 11.4811 91.1049 10.5511C91.1079 10.3076 91.0139 10.2127 90.7769 10.2319C90.7072 10.2374 90.637 10.2358 90.5668 10.2341C90.5331 10.2334 90.4995 10.2326 90.4659 10.2326C85.4259 10.2326 80.3849 10.2326 75.3439 10.2323L75.2878 10.2323C74.9473 10.2321 74.7959 10.232 74.7306 10.3069C74.6784 10.3668 74.6811 10.4746 74.6861 10.6687V10.6691C74.6879 10.7379 74.6899 10.8175 74.6899 10.9097C74.6877 18.1835 74.6883 25.4573 74.6893 32.7312C74.6893 32.7765 74.689 32.8189 74.6886 32.8586L74.6877 32.932C74.6848 33.1787 74.6832 33.3059 74.746 33.3713C74.813 33.4408 74.9529 33.4402 75.2418 33.4388C75.285 33.4386 75.3317 33.4384 75.3819 33.4384C80.7903 33.4387 86.1987 33.4387 91.608 33.4387H91.8109L91.8351 33.4386L91.883 33.4381L91.9349 33.4373H91.935C92.018 33.4358 92.1012 33.4344 92.1839 33.4387C92.3959 33.4499 92.4779 33.3512 92.4769 33.1446C92.4729 32.1942 92.4719 31.2438 92.4779 30.2931C92.4789 30.0707 92.3719 30.0053 92.1699 30.0174C92.0708 30.0233 91.9718 30.0217 91.8724 30.0201C91.8263 30.0193 91.7801 30.0186 91.7339 30.0186H81.9019C81.5972 30.0186 81.2926 30.0182 80.9879 30.0178C80.1516 30.0166 79.3152 30.0154 78.4789 30.023C78.2229 30.0248 78.1129 29.9649 78.1149 29.6821C78.1259 27.9466 78.1259 26.2105 78.1139 24.475C78.1119 24.2017 78.2159 24.0665 78.4529 23.9638C79.3369 23.582 80.2559 23.3577 81.2169 23.2957C82.3332 23.2229 83.4509 23.2297 84.5687 23.2365C85.1101 23.2398 85.6515 23.2431 86.1929 23.2374C86.5669 23.2333 86.9399 23.2324 87.3139 23.237C87.5179 23.2395 87.6099 23.1607 87.6089 22.9464C87.6046 22.2107 87.6054 21.475 87.6062 20.7505V20.7494V20.7483V20.7472V20.7461V20.745V20.7439V20.7429V20.7418C87.6065 20.4533 87.6069 20.1666 87.6069 19.8824C87.4782 19.7808 87.3628 19.7828 87.2532 19.7848C87.2394 19.785 87.2256 19.7853 87.2119 19.7853C86.7727 19.7857 86.3335 19.7857 85.8943 19.7857C84.5702 19.7856 83.2457 19.7856 81.9219 19.7968C81.4049 19.8008 80.8889 19.8291 80.3729 19.9075ZM210.338 20.6312C211.878 19.8002 213.492 19.7583 215.115 19.7587C215.544 19.7588 215.972 19.7585 216.401 19.7582H216.402C217.363 19.7577 218.324 19.7571 219.285 19.7605C219.79 19.7624 219.796 19.7708 219.799 20.2853C219.804 21.112 219.806 21.9386 219.798 22.7653C219.794 23.2008 219.784 23.2119 219.339 23.2138C218.778 23.2162 218.216 23.2152 217.655 23.2141H217.654C216.868 23.2127 216.081 23.2112 215.294 23.2194L215.22 23.2201C214.084 23.2318 212.947 23.2436 211.836 23.5401C211.437 23.647 211.053 23.794 210.668 23.9417L210.663 23.9434C210.368 24.0559 210.269 24.2405 210.272 24.5544C210.281 25.3576 210.28 26.1607 210.28 26.9639C210.279 27.6281 210.279 28.2923 210.283 28.9566C210.284 29.0504 210.272 29.1514 210.259 29.2528C210.229 29.503 210.199 29.7563 210.353 29.9135C210.528 30.0905 210.799 30.0596 211.067 30.0292C211.169 30.0176 211.271 30.006 211.366 30.0062C214.317 30.0109 217.267 30.011 220.218 30.011C221.479 30.0111 222.74 30.0111 224 30.0115L224.087 30.0112L224.169 30.0106C224.421 30.0086 224.549 30.0075 224.613 30.0709C224.679 30.1357 224.679 30.2681 224.678 30.536L224.678 30.6163L224.678 30.6713C224.678 30.7864 224.678 30.9016 224.678 31.0168L224.677 31.3551C224.675 31.9123 224.673 32.4697 224.682 33.0271C224.687 33.3181 224.588 33.4542 224.289 33.4316C224.205 33.4251 224.121 33.427 224.036 33.4289C223.996 33.4298 223.956 33.4307 223.916 33.4307H207.61C207.547 33.4307 207.485 33.4316 207.423 33.4303H207.423C206.892 33.4217 206.886 33.4216 206.886 32.8751C206.885 29.9339 206.885 26.9929 206.885 24.0516L206.885 21.0952V10.9894C206.885 10.9501 206.887 10.9106 206.888 10.8711V10.8708C206.891 10.7858 206.894 10.7008 206.883 10.6175C206.84 10.2763 207.014 10.1997 207.319 10.2032C208.02 10.2118 208.72 10.2102 209.42 10.2087L209.423 10.2087L209.784 10.2079C209.937 10.2077 210.091 10.2075 210.244 10.2075H222.381L222.463 10.2073L222.499 10.2071C222.584 10.2067 222.67 10.2063 222.754 10.2078C223.292 10.2174 223.296 10.2177 223.299 10.7655C223.301 11.0802 223.3 11.3951 223.299 11.7099C223.298 12.2218 223.297 12.7337 223.305 13.2454C223.31 13.5367 223.218 13.6511 222.915 13.644C222.43 13.6323 221.945 13.6347 221.459 13.637C221.26 13.638 221.061 13.639 220.861 13.639H211.028C210.981 13.639 210.933 13.6398 210.886 13.6407C210.788 13.6425 210.69 13.6442 210.592 13.6384C210.342 13.6232 210.261 13.7529 210.279 13.9781C210.281 13.9919 210.28 14.0057 210.28 14.0195L210.28 14.0293L210.279 14.0401L210.28 15.6331C210.281 17.2101 210.281 18.7871 210.283 20.3641C210.283 20.3986 210.292 20.4332 210.306 20.4895L210.306 20.4898L210.306 20.4907L210.306 20.4914L210.306 20.4917L210.307 20.4926C210.311 20.5116 210.316 20.5329 210.322 20.5575C210.327 20.5793 210.333 20.6037 210.338 20.6312ZM51.7622 33.3502C51.7871 33.3409 51.8145 33.3307 51.8456 33.3213V32.6454C51.8456 32.0235 51.8461 31.4017 51.8466 30.7799C51.8481 28.839 51.8496 26.8984 51.8365 24.9578C51.8341 24.5899 51.9567 24.414 52.288 24.2723C53.4323 23.7822 54.6327 23.5874 55.8632 23.5681C57.225 23.5472 58.5873 23.5531 59.9496 23.559L60.4062 23.561C60.948 23.5632 61.486 23.5268 62.0144 23.4179C64.5792 22.8885 66.2778 21.4207 66.9675 18.8614C67.23 17.8884 67.2533 16.8989 67.1646 15.9088C66.9158 13.1233 65.1537 11.1009 62.4308 10.4464C61.7003 10.2708 60.9558 10.2311 60.2072 10.2314C58.393 10.232 56.5788 10.232 54.7647 10.2319C52.8863 10.2318 51.0079 10.2317 49.1295 10.2324L49.0143 10.2321L48.9771 10.232C48.6675 10.2307 48.5238 10.2301 48.4591 10.3012C48.4031 10.3628 48.4061 10.4781 48.4117 10.6931V10.6931C48.4137 10.7723 48.4162 10.8649 48.4161 10.9734C48.4137 16.6293 48.4139 22.2853 48.4141 27.9411L48.4142 32.6727C48.4142 32.7114 48.4153 32.7502 48.4164 32.7891C48.4187 32.8744 48.4211 32.9598 48.4121 33.0443C48.3828 33.3234 48.5189 33.3969 48.7764 33.3938C49.3633 33.3871 49.9503 33.3862 50.5373 33.3852C50.9045 33.3846 51.2717 33.3841 51.6388 33.382C51.6771 33.3819 51.7153 33.3676 51.7622 33.3502ZM56.6663 20.1287C55.045 20.1285 53.4345 20.1912 51.873 21.0395C51.8705 20.9973 51.868 20.9588 51.8656 20.9233L51.8595 20.8354L51.8595 20.835C51.852 20.7286 51.8465 20.6507 51.8465 20.5727C51.8452 18.4256 51.8443 16.2785 51.8465 14.1314C51.8468 13.6326 51.8521 13.6273 52.3478 13.6273C53.5633 13.6267 54.7787 13.627 55.994 13.6272C57.5143 13.6276 59.0344 13.6279 60.5547 13.6266C60.9302 13.6264 61.2983 13.6698 61.6638 13.7495C62.787 13.9943 63.4922 14.6513 63.7251 15.7927C63.8593 16.4488 63.8783 17.1058 63.7463 17.7589C63.4695 19.1299 62.5976 19.9219 61.2027 20.0758C60.8331 20.1164 60.4582 20.1245 60.0858 20.1266C59.267 20.131 58.4485 20.1302 57.6298 20.1294C57.3087 20.1291 56.9875 20.1287 56.6663 20.1287ZM158.741 33.6223H158.741C156.597 33.6157 154.452 33.6091 152.309 33.6432C151.031 33.663 150.964 33.0681 151.342 32.2154C154.036 26.1464 156.704 20.0659 159.371 13.9853L160.349 11.7568C160.57 11.2522 160.822 10.852 161.471 10.8803C161.852 10.8967 162.103 11.0347 162.252 11.3732C162.46 11.8453 162.667 12.3183 162.872 12.7913L164.665 16.9248L164.81 17.259L164.945 17.5685C167.072 22.4705 169.199 27.3722 171.325 32.2746L171.353 32.3384C171.427 32.5061 171.501 32.6764 171.537 32.8528C171.631 33.3159 171.441 33.5644 170.971 33.6137C170.811 33.6305 170.647 33.6291 170.484 33.6278L170.428 33.6273L170.375 33.6271L170.35 33.627C168.015 33.6278 165.682 33.6277 163.347 33.6277L161.329 33.6276C160.467 33.6276 159.604 33.625 158.742 33.6223H158.742H158.741H158.741H158.741ZM167.371 30.5819C165.376 25.9013 163.406 21.2786 161.391 16.5483C160.67 18.2356 159.954 19.9052 159.242 21.5659L159.221 21.6145L159.218 21.6214L159.217 21.6235C157.932 24.6217 156.659 27.5909 155.391 30.5819H167.371ZM241.783 32.6106V23.4959L241.783 21.2086C241.782 18.9328 241.782 16.6572 241.785 14.3814C241.785 14.2961 241.784 14.2205 241.783 14.1535C241.78 13.8912 241.778 13.7612 241.842 13.6974C241.905 13.6347 242.032 13.6358 242.283 13.638C242.347 13.6385 242.419 13.6392 242.5 13.6388C243.193 13.636 243.887 13.6367 244.58 13.6373C244.883 13.6376 245.185 13.6379 245.488 13.6379L246.608 13.6378C247.604 13.6376 248.6 13.6374 249.596 13.6385L249.628 13.6387C249.829 13.6398 250.008 13.6408 250.005 13.3361C249.992 12.4062 249.995 11.4759 250.003 10.546C250.005 10.2994 249.894 10.215 249.667 10.2243C249.585 10.2278 249.503 10.2266 249.42 10.2253C249.378 10.2247 249.336 10.224 249.294 10.224H230.87C230.847 10.224 230.824 10.2243 230.801 10.2246L230.742 10.2256C230.66 10.2272 230.578 10.2287 230.497 10.2246C230.258 10.2125 230.168 10.3233 230.17 10.5578C230.177 11.488 230.177 12.418 230.17 13.3479C230.169 13.5619 230.258 13.6478 230.466 13.6379C230.563 13.6332 230.66 13.6348 230.757 13.6363L230.828 13.6374C230.853 13.6377 230.877 13.6379 230.902 13.6379L232.648 13.6377C234.431 13.6375 236.214 13.6372 237.998 13.6395C238.477 13.6401 238.478 13.6485 238.489 14.1119C238.491 14.2152 238.491 14.3186 238.49 14.422C238.49 14.4632 238.49 14.5045 238.49 14.5458V32.5886C238.49 32.6467 238.491 32.7047 238.492 32.7627C238.493 32.8702 238.495 32.9776 238.491 33.0846C238.482 33.2968 238.581 33.3774 238.789 33.3762C239.682 33.3718 240.573 33.37 241.465 33.3781C241.712 33.3805 241.798 33.2747 241.784 33.0443C241.778 32.9465 241.78 32.848 241.781 32.7495L241.782 32.7079L241.783 32.6567L241.783 32.6106ZM137.97 10.2338H147.118C147.157 10.2338 147.196 10.2352 147.235 10.2365C147.321 10.2396 147.406 10.2426 147.49 10.2314C147.829 10.1858 147.908 10.3439 147.9 10.6544C147.888 11.1913 147.89 11.7284 147.892 12.2656C147.893 12.5344 147.894 12.8032 147.894 13.072C147.894 13.1337 147.894 13.1889 147.895 13.2381C147.896 13.4399 147.897 13.5424 147.846 13.5943C147.794 13.648 147.686 13.6473 147.466 13.646C147.427 13.6458 147.384 13.6455 147.338 13.6456C146.418 13.6459 145.498 13.6458 144.579 13.6457H144.568C143.168 13.6455 141.769 13.6453 140.369 13.6468C140.295 13.6468 140.229 13.6462 140.17 13.6456C139.919 13.6431 139.794 13.6419 139.732 13.7038C139.671 13.7656 139.672 13.8904 139.675 14.1396L139.675 14.1422V14.1425C139.675 14.2027 139.676 14.2703 139.676 14.3459C139.675 16.6335 139.675 18.9212 139.676 21.2088C139.676 25.0371 139.676 28.8654 139.674 32.6937C139.674 32.7868 139.675 32.8675 139.676 32.9375C139.68 33.1658 139.682 33.2796 139.627 33.3358C139.571 33.3916 139.458 33.3905 139.233 33.3882L139.153 33.3875C139.129 33.3873 139.103 33.3872 139.077 33.3872C139.049 33.3871 139.019 33.3872 138.989 33.3875C138.284 33.3934 137.578 33.3919 136.873 33.3879C136.385 33.3848 136.385 33.3807 136.378 32.8709V32.8708C136.377 32.788 136.377 32.7052 136.378 32.6226L136.378 32.4989V14.337C136.378 14.2821 136.378 14.2314 136.378 14.1848C136.379 13.8967 136.38 13.76 136.312 13.6963C136.251 13.6388 136.133 13.6409 135.91 13.6448C135.842 13.6461 135.763 13.6475 135.673 13.6474C134.337 13.6454 133 13.6456 131.663 13.6457C130.636 13.6459 129.608 13.646 128.58 13.6452C128.07 13.6446 128.065 13.64 128.063 13.1545C128.06 12.3487 128.06 11.5428 128.063 10.737C128.066 10.2413 128.07 10.2354 128.575 10.2348C130.445 10.2331 132.314 10.2334 134.185 10.2336H134.185H134.185H134.185L136.166 10.2338H137.97ZM-14.5138 13.4402L-14.8028 12.559C-14.9957 12.6964 -15.1823 12.8287 -15.3643 12.9578C-15.7898 13.2595 -16.1898 13.5432 -16.5864 13.8313C-16.9812 14.118 -16.9802 14.1251 -16.8286 14.5963C-16.4933 15.6385 -16.156 16.6804 -15.8157 17.7211L-15.8116 17.7338C-15.5575 18.5102 -15.5557 18.516 -16.2361 19.0167L-16.4525 19.176C-17.1979 19.7245 -17.9433 20.273 -18.7025 20.8021C-18.9749 20.9916 -19.0313 21.1728 -18.9036 21.4737C-18.8332 21.639 -18.7819 21.8123 -18.7306 21.9856L-18.7306 21.9856C-18.682 22.1498 -18.6334 22.314 -18.5686 22.4715C-18.5249 22.5779 -18.5011 22.7052 -18.4775 22.832C-18.427 23.1023 -18.377 23.37 -18.1361 23.4272C-17.9054 23.4821 -17.6793 23.2847 -17.4574 23.091L-17.4574 23.091C-17.372 23.0164 -17.2871 22.9424 -17.2029 22.8835C-16.9056 22.676 -16.6108 22.4646 -16.3161 22.2531L-16.3159 22.253L-16.3157 22.2529L-16.3157 22.2529L-16.3157 22.2528C-15.9373 21.9814 -15.5588 21.7099 -15.1749 21.4467C-14.7711 21.1703 -14.6876 21.2113 -14.5229 21.6756C-14.5156 21.6962 -14.5108 21.7176 -14.5061 21.7391L-14.5061 21.7392C-14.5019 21.7581 -14.4977 21.7771 -14.4918 21.7956L-13.5538 24.7327L-13.5537 24.7331C-12.4714 28.1227 -11.389 31.5125 -10.3038 34.9016C-10.1185 35.4804 -9.92776 36.0574 -9.73704 36.6343C-9.58414 37.0969 -9.43124 37.5594 -9.28116 38.0229C-9.12396 38.5087 -9.15196 38.5465 -9.67886 38.5524C-9.99806 38.5559 -10.3174 38.5549 -10.6366 38.5538H-10.6374C-10.9818 38.5528 -11.3262 38.5517 -11.6704 38.5562C-11.8199 38.5582 -11.9696 38.5556 -12.1209 38.553H-12.1209C-12.4888 38.5468 -12.866 38.5403 -13.2724 38.5986L-13.0552 39.2449L-13.0552 39.245L-13.0552 39.2451C-12.8861 39.7487 -12.7208 40.2411 -12.5541 40.733L-12.5538 40.7339C-12.3841 41.2355 -12.3822 41.2411 -11.8672 41.2433C-11.2516 41.2461 -10.636 41.2456 -10.0204 41.2451H-10.0154C-9.61599 41.2448 -9.21662 41.2445 -8.81726 41.2451C-8.23966 41.2461 -8.23716 41.2473 -8.05216 41.8146C-7.91456 42.2369 -7.77833 42.6596 -7.64211 43.0823L-7.64159 43.084C-7.50553 43.5061 -7.36948 43.9283 -7.23206 44.3501C-7.22632 44.3677 -7.22079 44.3857 -7.21523 44.4037L-7.21517 44.4039C-7.16585 44.5641 -7.11426 44.7318 -6.89326 44.7332C-6.16716 44.7372 -5.44106 44.7356 -4.71486 44.7313C-4.56726 44.7304 -4.48256 44.6491 -4.51746 44.4934C-4.55356 44.3324 -4.59596 44.1723 -4.64636 44.0151C-4.73122 43.7509 -4.81771 43.4872 -4.90421 43.2233L-4.90426 43.2232L-4.90459 43.2222C-5.04965 42.7798 -5.19474 42.3372 -5.33236 41.8925C-5.47556 41.4285 -5.44786 41.3953 -4.98606 41.3571C-4.75876 41.3379 -4.53026 41.3314 -4.30236 41.3295C1.15424 41.2864 6.61044 41.2501 12.0663 41.381C12.1049 41.3819 12.1439 41.3804 12.1835 41.3788H12.1835H12.1836C12.3304 41.3731 12.4841 41.367 12.6442 41.4843C12.5226 42.0563 12.3357 42.6158 12.1454 43.1854L12.1454 43.1855C11.9766 43.6908 11.8051 44.2042 11.674 44.7415C11.9072 44.7415 12.1324 44.7393 12.3521 44.7372C12.8577 44.7324 13.3338 44.7278 13.8084 44.7505C14.1883 44.7688 14.3761 44.6382 14.4857 44.2837C14.725 43.5091 14.987 42.7411 15.2488 41.9737L15.2489 41.9734L15.2638 41.9297C15.4429 41.4046 15.4503 41.4046 15.9913 41.4043H15.9971L16.714 41.4039H16.714H16.7141C17.4089 41.4035 18.1036 41.4031 18.7982 41.4043L18.8045 41.4043C19.0155 41.4049 19.2157 41.4055 19.3039 41.153L19.3313 41.0743C19.6047 40.2888 19.8789 39.5011 20.0976 38.6132H20.0709C19.3603 38.6132 18.7101 38.6132 18.06 38.6129C17.9147 38.6129 17.7694 38.6127 17.6241 38.6124C17.3336 38.6119 17.0432 38.6114 16.7528 38.6129C16.5392 38.6138 16.4455 38.5236 16.5009 38.3083C16.5221 38.2255 16.5441 38.1432 16.5661 38.0609L16.5661 38.0607L16.5959 37.9488C16.7963 37.1888 17.0544 36.4473 17.3126 35.7058C17.4212 35.394 17.5298 35.0821 17.634 34.7688C19.0299 30.5742 20.4276 26.3805 21.8285 22.1874C21.8444 22.1402 21.8592 22.0924 21.8741 22.0442C21.9437 21.8198 22.0159 21.5868 22.2037 21.3657C22.9809 21.9139 23.7493 22.4562 24.5293 23.0067L24.573 23.0375L24.5775 23.0407L25.1475 23.443C25.3502 23.0033 25.481 22.5707 25.6081 22.1502L25.6082 22.1501C25.6938 21.867 25.7777 21.5893 25.8808 21.3186C26.0056 20.9904 25.8976 20.8397 25.6475 20.6638C25.2401 20.3765 24.8375 20.0824 24.435 19.7882L24.4349 19.7881L24.4348 19.7881C24.0513 19.5078 23.6677 19.2275 23.2798 18.9531C23.0245 18.7726 22.9308 18.6029 23.0634 18.2859C23.1964 17.9675 23.3003 17.6373 23.4043 17.3072L23.4044 17.3069L23.4045 17.3066C23.4495 17.1635 23.4946 17.0204 23.542 16.8783C23.5796 16.7656 23.6172 16.653 23.6549 16.5403C23.6842 16.453 23.7134 16.3657 23.7427 16.2784C23.8988 15.8124 24.055 15.3464 24.2068 14.8788L24.2202 14.8386C24.2743 14.6778 24.3317 14.5071 24.1455 14.3729C23.7012 14.0522 23.2568 13.7319 22.8051 13.4064L22.172 12.9501C22.147 12.999 22.1249 13.0393 22.1056 13.0742C22.0714 13.1363 22.0463 13.1819 22.0303 13.2305C21.9122 13.5911 21.7956 13.9523 21.679 14.3134L21.6788 14.3141L21.6786 14.3148L21.6785 14.3149L21.6785 14.315C21.4779 14.9364 21.2773 15.5578 21.0688 16.1766C20.7509 17.1199 20.7431 17.1165 19.9444 16.5315L17.9073 15.0391L17.9059 15.0381C15.5443 13.3079 13.1826 11.5776 10.8192 9.84979C10.1055 9.32786 9.38991 8.80839 8.67436 8.28893L8.67338 8.28821L8.67236 8.28747L8.67183 8.28709C7.91309 7.73627 7.15436 7.18545 6.39774 6.63169C5.96304 6.3137 5.96494 6.2318 6.39494 5.91299C6.74468 5.65334 7.0981 5.39859 7.45158 5.14381L7.45166 5.14375L7.45214 5.1434L7.45249 5.14314L7.45255 5.1431C7.68697 4.97413 7.92143 4.80514 8.15484 4.63469C8.4434 4.42404 8.72995 4.21052 9.03146 3.98583L9.03245 3.98509L9.03323 3.98452C9.16228 3.88835 9.29407 3.79014 9.42994 3.68924C9.23737 3.54876 9.04951 3.41306 8.86543 3.28009L8.86494 3.27974C8.43541 2.96947 8.02644 2.67405 7.62615 2.36755C7.33994 2.14855 7.12044 2.205 6.85264 2.40539C6.11742 2.95583 5.37124 3.49174 4.62514 4.02759L4.28914 4.26897C3.73524 4.66755 3.68694 4.6629 3.15074 4.27332C2.19514 3.57975 1.23864 2.88742 0.281743 2.1957C0.261456 2.18101 0.241532 2.16568 0.221734 2.15045C0.082631 2.04344 -0.0503608 1.94112 -0.259757 2.09861C-0.703906 2.43195 -1.15557 2.75517 -1.6165 3.08502L-1.61662 3.08511L-1.61674 3.08519L-1.61685 3.08527C-1.8069 3.22128 -1.99853 3.35842 -2.19186 3.49786C-1.9309 3.7779 -1.63915 3.98272 -1.35269 4.18383C-1.25111 4.25515 -1.1502 4.326 -1.05156 4.39956C-0.778113 4.6032 -0.502982 4.80457 -0.227862 5.00593L-0.227691 5.00606L-0.227519 5.00619C0.215924 5.33075 0.659341 5.6553 1.09564 5.98929C1.39704 6.21999 1.39084 6.32829 1.09725 6.56499C0.934396 6.69618 0.760682 6.81406 0.586869 6.93201L0.586835 6.93203C0.486142 7.00036 0.385415 7.06872 0.286744 7.13969C-2.4617 9.11883 -5.20978 11.0983 -7.95792 13.0778L-7.96954 13.0862L-10.5043 14.912C-10.7407 15.0824 -10.9765 15.2536 -11.2124 15.4248L-11.2132 15.4254C-11.765 15.8261 -12.3168 16.2267 -12.8764 16.6162C-13.2397 16.8693 -13.3574 16.8206 -13.5141 16.417C-13.6258 16.1283 -13.7258 15.8345 -13.8233 15.5402C-14.0507 14.853 -14.2761 14.1652 -14.5136 13.4408L-14.5138 13.4402ZM9.02204 31.117H3.67014L-2.24161 31.1171L-8.15366 31.1173C-8.80476 31.117 -8.80546 31.1161 -9.02026 30.4963C-9.36496 29.5003 -9.66916 28.4922 -9.95876 27.4792C-10.06 27.1262 -9.98896 26.9292 -9.68166 26.7102C-6.57583 24.4976 -3.47605 22.277 -0.376182 20.0562L-0.36943 20.0514C0.821599 19.1981 2.01264 18.3449 3.20404 17.4921C3.70654 17.1323 3.74704 17.1357 4.23594 17.4928C8.46624 20.5841 12.6959 23.6763 16.9253 26.7691C17.4238 27.1339 17.4254 27.137 17.2382 27.7251C16.9371 28.6693 16.6351 29.6135 16.3259 30.5553C16.1419 31.1164 16.1353 31.1164 15.5562 31.1167C14.0016 31.1173 12.447 31.1172 10.8924 31.1171L9.02204 31.117ZM-5.98656 15.2216C-6.00206 15.1617 -6.01646 15.1015 -6.01826 15.0938C-6.06376 14.8742 -5.97596 14.7693 -5.84986 14.6797L-5.39011 14.3532L-5.39003 14.3531L-5.38996 14.3531C-4.58215 13.7795 -3.77428 13.2058 -2.97085 12.6263C-2.80736 12.5084 -2.68376 12.5199 -2.52806 12.6331C-2.02862 12.9974 -1.52793 13.3599 -1.02724 13.7225L-1.02676 13.7228L-1.02521 13.7239L-1.0247 13.7243C-0.303565 14.2464 0.417569 14.7686 1.13494 15.296C1.41264 15.5001 1.40834 15.6729 1.12904 15.8854C0.776128 16.1539 0.414678 16.4111 0.0531663 16.6683C-0.0909453 16.7708 -0.235065 16.8733 -0.378657 16.9766L-1.14213 17.5259C-2.07939 18.2002 -3.0165 18.8745 -3.95516 19.5471C-4.39106 19.8595 -4.42186 19.8598 -4.61186 19.3908C-5.16236 18.0319 -5.61196 16.6385 -5.98656 15.2216ZM13.2078 14.7593C13.3314 14.8479 13.4611 14.9409 13.4289 15.1586C13.4162 15.2006 13.4029 15.2456 13.389 15.2926L13.3889 15.2931C13.3599 15.3912 13.3284 15.498 13.2941 15.604C12.8933 16.8404 12.4926 18.0765 12.0903 19.3123C11.9016 19.8911 11.7879 19.9293 11.2723 19.5552C10.3688 18.8995 9.46786 18.2401 8.56705 17.5807C8.24951 17.3483 7.93198 17.1158 7.61434 16.8836C7.49314 16.795 7.37147 16.707 7.24979 16.6191L7.24938 16.6188L7.24897 16.6185L7.24882 16.6184L7.24877 16.6183C6.91813 16.3793 6.58744 16.1401 6.26605 15.8891C5.97114 15.659 5.96744 15.5383 6.26984 15.3143C6.95828 14.8041 7.65125 14.3001 8.34419 13.7961L8.34521 13.7954L8.34529 13.7953C8.8062 13.4601 9.2671 13.1249 9.72664 12.7879C10.0028 12.5853 10.2529 12.6098 10.5203 12.8059C11.0383 13.1857 11.5584 13.5626 12.0785 13.9395L12.0786 13.9396L12.0787 13.9397C12.4462 14.206 12.8137 14.4722 13.1804 14.7396L13.2078 14.7593ZM0.342744 34.9483L0.341462 34.9445L0.339528 34.9387C0.208047 34.5453 0.0751809 34.1478 -0.0588599 33.7443C-0.00302037 33.7396 0.0450944 33.7351 0.087716 33.731L0.110883 33.7287L0.11155 33.7287C0.204488 33.7196 0.270879 33.7132 0.337441 33.7132C2.45174 33.712 4.56624 33.7108 6.68084 33.7136C7.19174 33.7142 7.22194 33.7408 7.10024 34.2412C6.77824 35.566 6.36294 36.8622 5.87934 38.1374C5.75724 38.4588 5.57074 38.5673 5.22734 38.5605C4.14964 38.5397 3.07134 38.545 1.99365 38.5577C1.68854 38.5611 1.50604 38.4954 1.40174 38.1678C1.0625 37.1019 0.708028 36.0413 0.342858 34.9487L0.342744 34.9483ZM-10.39 24.16C-10.5494 24.2757 -10.7072 24.3902 -10.8749 24.439C-11.0051 24.3803 -11.0294 24.2915 -11.0517 24.2098L-11.0517 24.2097C-11.0562 24.1934 -11.0605 24.1774 -11.0657 24.162C-11.2228 23.6882 -11.3788 23.214 -11.5348 22.7397L-11.5348 22.7396L-11.5349 22.7395L-11.5349 22.7395L-11.5349 22.7394C-11.8425 21.8042 -12.1502 20.8689 -12.4669 19.9367C-12.5712 19.6302 -12.5043 19.4485 -12.2421 19.2639C-11.5581 18.7834 -10.8791 18.2957 -10.2001 17.808L-10.1999 17.8078C-9.73769 17.4758 -9.27546 17.1438 -8.81166 16.8141C-8.39476 16.5175 -8.28796 16.5498 -8.11826 17.0495C-7.68106 18.3374 -7.25256 19.6284 -6.83376 20.9228C-6.67126 21.425 -6.72916 21.5732 -7.13836 21.8636C-8.18296 22.6055 -9.22946 23.345 -10.2789 24.0802C-10.3161 24.1063 -10.3531 24.1332 -10.39 24.16ZM0.425534 11.6521L-0.581657 10.9258C-0.235644 10.6734 0.10098 10.4273 0.431088 10.186L0.433114 10.1845C1.26135 9.57895 2.04862 9.00336 2.84034 8.4341C2.92288 8.37476 3.003 8.30075 3.08331 8.22655C3.27747 8.04719 3.47282 7.86673 3.70654 7.8898C3.91425 7.91035 4.10938 8.07567 4.30224 8.23906C4.37678 8.30222 4.45098 8.36508 4.52544 8.4192C5.48044 9.11309 6.43514 9.80729 7.38394 10.5093C7.88334 10.8787 7.88834 11.0164 7.38764 11.3837C6.63532 11.9356 5.8781 12.4806 5.12087 13.0257L5.12009 13.0262L5.11931 13.0268C4.75097 13.2919 4.38263 13.5571 4.01484 13.823C3.85854 13.9359 3.71654 14.0317 3.51605 13.8859C2.49978 13.1475 1.48079 12.4129 0.425534 11.6521ZM15.225 17.8787C15.3551 17.4784 15.4858 17.0762 15.6178 16.6717C15.9071 16.7397 16.0931 16.8794 16.2692 17.0117L16.2694 17.0118C16.3091 17.0417 16.3484 17.0712 16.3882 17.0994C17.4363 17.8383 18.4788 18.5849 19.5184 19.3356C19.9114 19.6194 19.9382 19.7031 19.7856 20.1737C19.3724 21.4489 18.9552 22.7231 18.5292 23.9942C18.3386 24.5622 18.2328 24.592 17.7511 24.248C16.6239 23.4418 15.4992 22.6319 14.3751 21.8217C14.3563 21.8082 14.3373 21.795 14.3185 21.782C14.1573 21.6707 14.008 21.5676 14.103 21.2866C14.4841 20.159 14.8519 19.027 15.2247 17.8798L15.2248 17.8793L15.225 17.8787ZM-1.22799 38.4024C-1.21849 38.4438 -1.20728 38.4926 -1.19266 38.553C-1.58271 38.553 -1.96694 38.5535 -2.34694 38.5541H-2.35028C-3.35631 38.5555 -4.33267 38.5569 -5.30866 38.5481C-5.41235 38.5472 -5.52087 38.5586 -5.62978 38.57C-5.90551 38.5989 -6.18384 38.6281 -6.39316 38.4594C-6.57872 38.3104 -6.63297 38.0587 -6.68703 37.8079C-6.71008 37.701 -6.7331 37.5942 -6.76626 37.4956C-7.10846 36.4782 -7.43666 35.4562 -7.75826 34.4319C-7.77482 34.3791 -7.79592 34.3268 -7.81711 34.2743L-7.81712 34.2742L-7.81716 34.2741C-7.8804 34.1173 -7.94442 33.9586 -7.89126 33.7799C-7.79821 33.7109 -7.69488 33.714 -7.59302 33.7172L-7.59283 33.7172C-7.57171 33.7178 -7.55065 33.7185 -7.52976 33.7185C-7.11837 33.7182 -6.70699 33.7187 -6.29561 33.7192C-5.25563 33.7203 -4.2157 33.7215 -3.17576 33.7111C-2.86376 33.7077 -2.68596 33.7809 -2.58696 34.1013C-2.28375 35.0824 -1.96921 36.06 -1.65464 37.0377L-1.65456 37.038L-1.65448 37.0383C-1.52653 37.436 -1.39857 37.8337 -1.27136 38.2317C-1.25613 38.2799 -1.24477 38.3294 -1.22806 38.4021L-1.228 38.4024L-1.22799 38.4024ZM11.7296 38.5522C11.5261 38.5524 11.3226 38.5527 11.1191 38.5527C10.8896 38.5526 10.6601 38.5528 10.4306 38.5531C9.99621 38.5535 9.56181 38.5539 9.12724 38.5521C8.48214 38.5493 8.45065 38.5084 8.65025 37.8719C8.79061 37.4234 8.93998 36.9779 9.08933 36.5324L9.08945 36.532L9.17304 36.2825C9.25485 36.0378 9.33803 35.7935 9.42121 35.5491C9.58442 35.0698 9.74763 34.5904 9.90044 34.1078C9.98764 33.8314 10.1236 33.7086 10.4307 33.7117C11.2591 33.7196 12.0873 33.7188 12.9156 33.7181H12.9167C13.5196 33.7176 14.1225 33.717 14.7254 33.7198C15.1287 33.721 15.2227 33.8268 15.1025 34.2058C14.8603 34.9688 14.6099 35.7295 14.3595 36.4902L14.359 36.4918C14.1638 37.0847 13.9686 37.6776 13.7773 38.2717C13.6948 38.5282 13.5201 38.5558 13.2975 38.5546C12.7749 38.5508 12.2522 38.5515 11.7296 38.5522ZM8.83203 29.165C9.35763 27.5595 9.84933 26.0579 10.3584 24.5039C10.9489 24.8382 11.454 25.2253 11.952 25.607L11.9522 25.6071C12.0912 25.7137 12.2297 25.8198 12.3693 25.9242C12.5309 26.0448 12.5265 26.186 12.4661 26.3622C12.184 27.1826 11.9087 28.0055 11.6388 28.83C11.5659 29.0533 11.4501 29.1724 11.1954 29.1687C10.668 29.1613 10.1404 29.1625 9.56634 29.1639H9.56566C9.33 29.1644 9.08653 29.165 8.83203 29.165ZM-2.74686 29.0786C-2.36816 29.0884 -1.97935 29.0984 -1.55854 29.0148C-1.89485 27.9712 -2.22401 26.9507 -2.54712 25.9488C-2.68977 25.5066 -2.83124 25.0679 -2.97164 24.6326C-3.12143 24.6045 -3.18588 24.6508 -3.24536 24.6935C-3.25251 24.6986 -3.25959 24.7037 -3.26674 24.7086C-3.43592 24.8244 -3.60478 24.9408 -3.77367 25.0572C-4.16651 25.3279 -4.5595 25.5988 -4.95694 25.8628C-5.14403 25.9874 -5.18924 26.127 -5.11914 26.3339C-5.04121 26.5643 -4.96657 26.7958 -4.89194 27.0274C-4.78319 27.3649 -4.67444 27.7023 -4.55554 28.0359C-4.51897 28.1384 -4.49555 28.2512 -4.47213 28.3639C-4.42082 28.611 -4.36959 28.8577 -4.18034 28.9947C-3.96671 29.1494 -3.68722 29.1215 -3.41015 29.0939C-3.30112 29.083 -3.19246 29.0721 -3.08834 29.0725C-2.97503 29.0728 -2.86141 29.0757 -2.74686 29.0786Z" fill="currentColor"></path>
</svg>